<svg
  width="56"
  height="auto"
  viewBox="0 0 969 115"
  fill="none"
  xmlns="http://www.w3.org/2000/svg"
  cursor="pointer"
  id="logo"
>
  <path
    d="M70.811 73.7802C62.06 82.4052 49.376 86.4632 32.888 86.4632H0.927002V83.5462L12.722 81.8972V10.8722L0.927002 9.22315V6.30615H36.059C51.533 6.30615 63.835 9.60415 71.826 17.4672C78.168 23.5552 81.719 32.4332 81.719 44.7362C81.718 57.4192 77.659 66.9312 70.811 73.7802ZM36.439 9.09615H34.156L23.122 10.8722V81.8972L33.902 83.6731H34.283C60.664 83.6731 69.923 65.6632 69.923 45.3702C69.923 24.5692 61.298 9.09615 36.439 9.09615Z"
  ></path>
  <path
    d="M133.722 50.5701L98.209 49.8091C97.701 52.4721 97.448 55.0091 97.448 57.6731C97.448 70.4831 104.043 81.7711 116.726 81.7711C125.984 81.7711 130.55 74.5421 132.199 71.4981L134.228 72.6391C132.072 78.3461 126.619 87.9861 112.92 87.9861C99.857 87.9861 88.189 78.0931 88.189 60.7171C88.189 52.8531 90.598 46.2581 94.657 41.1851C99.477 35.2241 106.199 31.6731 114.443 31.6731C128.013 31.6731 134.228 40.4241 134.355 49.8101L133.722 50.5701ZM114.443 34.2081C105.818 34.2081 100.872 40.4231 98.969 47.1451H121.799C123.954 47.1451 124.716 46.5111 124.716 44.3551C124.717 39.4091 121.673 34.2081 114.443 34.2081Z"
  ></path>
  <path
    d="M184.962 50.5701L149.449 49.8091C148.941 52.4721 148.688 55.0091 148.688 57.6731C148.688 70.4831 155.283 81.7711 167.966 81.7711C177.224 81.7711 181.79 74.5421 183.439 71.4981L185.468 72.6391C183.312 78.3461 177.859 87.9861 164.16 87.9861C151.097 87.9861 139.429 78.0931 139.429 60.7171C139.429 52.8531 141.838 46.2581 145.897 41.1851C150.717 35.2241 157.439 31.6731 165.683 31.6731C179.253 31.6731 185.468 40.4241 185.595 49.8101L184.962 50.5701ZM165.684 34.2081C157.059 34.2081 152.113 40.4231 150.21 47.1451H173.04C175.195 47.1451 175.957 46.5111 175.957 44.3551C175.957 39.4091 172.913 34.2081 165.684 34.2081Z"
  ></path>
  <path
    d="M214.26 111.068V114.112C210.581 113.858 204.493 113.732 200.689 113.732C195.489 113.732 191.811 113.859 187.626 114.112V111.068L196.25 110.053V41.3111L188.133 37.7601V36.6191L202.973 31.6731H204.875V38.5221C206.017 37.3811 211.724 31.6731 221.109 31.6731C231.762 31.6731 243.558 39.1561 243.558 57.9271C243.558 78.2201 231.001 87.8591 216.796 87.8591C212.104 87.8591 207.791 86.8441 204.874 85.9571V110.055L214.26 111.068ZM215.654 37.2521C209.693 37.2521 205.761 39.9151 204.874 40.5501V74.2871C205.127 77.9651 209.693 85.3211 218.444 85.3211C227.449 85.3211 233.791 76.3161 233.791 62.3651C233.791 44.7351 224.913 37.2521 215.654 37.2521Z"
  ></path>
  <path
    d="M272.984 9.22315V6.30615H334.497L338.429 24.4432H335.766L327.395 13.9162C325.493 11.5062 324.478 10.3652 323.59 9.73115C322.829 9.22415 322.194 9.22415 321.053 9.22415H295.18V43.9762H316.488C317.884 43.9762 318.39 43.8492 318.898 42.5812L322.703 33.1962H325.239V58.6892H322.576L318.898 48.2892C318.39 47.0212 317.756 46.8942 316.488 46.8942H295.18V81.8992L309.512 83.5481V86.5922C305.326 86.3382 294.165 86.2122 289.98 86.2122C285.921 86.2122 276.917 86.3392 272.985 86.5922V83.5481L284.78 81.8992V10.8722L272.984 9.22315Z"
  ></path>
  <path
    d="M359.739 87.9851C344.011 87.9851 334.246 76.8241 334.246 59.7021C334.246 41.3111 346.549 31.6721 359.865 31.6721C374.578 31.6721 385.232 42.8331 385.232 59.8281C385.232 77.2041 375.086 87.9851 359.739 87.9851ZM358.598 34.2081C348.325 34.2081 344.393 45.1151 344.393 57.0381C344.393 70.6091 348.958 85.4481 360.754 85.4481C371.915 85.4481 375.086 72.8921 375.086 61.6041C375.086 50.5701 371.027 34.2081 358.598 34.2081Z"
  ></path>
  <path
    d="M416.688 83.5459V86.5899C413.01 86.3359 406.035 86.2099 402.229 86.2099C397.03 86.2099 393.351 86.3369 389.166 86.5899V83.5459L397.791 82.5309V41.0569L389.674 37.5059V36.3649L404.386 31.4189H406.288V44.4829H406.415C410.347 37.2539 415.801 31.6729 421.255 31.6729C424.679 31.6729 427.723 33.8289 427.723 37.6339C427.723 41.9459 424.426 43.9759 421.762 43.9759C421.128 43.9759 420.747 43.8489 420.493 43.7219L415.04 38.9019C412.25 39.1559 407.684 44.4829 406.415 47.6529V82.5319L416.688 83.5459Z"
  ></path>
  <path
    d="M474.652 50.5701L439.139 49.8091C438.631 52.4721 438.378 55.0091 438.378 57.6731C438.378 70.4831 444.973 81.7711 457.656 81.7711C466.915 81.7711 471.48 74.5421 473.129 71.4981L475.158 72.6391C473.003 78.3461 467.549 87.9861 453.85 87.9861C440.787 87.9861 429.119 78.0931 429.119 60.7171C429.119 52.8531 431.528 46.2581 435.587 41.1851C440.407 35.2241 447.129 31.6731 455.373 31.6731C468.944 31.6731 475.158 40.4241 475.285 49.8101L474.652 50.5701ZM455.374 34.2081C446.749 34.2081 441.803 40.4231 439.9 47.1451H462.73C464.886 47.1451 465.647 46.5111 465.647 44.3551C465.648 39.4091 462.604 34.2081 455.374 34.2081Z"
  ></path>
  <path
    d="M497.609 87.9851C490.506 87.9851 484.038 85.8291 482.135 85.0681L481.501 70.3561H484.164C486.954 79.6151 491.14 85.4491 498.623 85.4491C505.472 85.4491 509.276 81.0101 509.276 75.5561C509.276 70.4831 506.105 67.6921 498.496 64.0141L495.579 62.6191C487.589 58.8141 481.247 56.0241 481.247 46.5111C481.247 36.2381 489.998 31.6721 499.257 31.6721C506.106 31.6721 510.418 33.5741 512.955 34.3351L513.589 47.3991H511.052C509.531 41.3111 506.106 34.2091 497.736 34.2091C491.521 34.2091 488.096 37.5071 488.096 42.7071C488.096 48.6681 491.14 51.2051 498.369 54.5021L502.681 56.5311C511.051 60.3361 516.886 64.5211 516.886 72.8921C516.888 83.2921 508.644 87.9851 497.609 87.9851Z"
  ></path>
  <path
    d="M555.571 80.2481C553.795 82.9111 548.468 87.9851 539.97 87.9851C535.658 87.9851 532.741 86.9701 530.838 85.0681C528.048 82.2781 527.413 77.7121 527.413 70.4821V41.4381H519.423V40.0431C525.258 35.6041 530.711 29.8971 534.77 25.3311H536.039V35.7311H547.961C550.244 35.7311 551.132 35.2241 551.766 34.7161H552.02V41.4381H536.04V67.8191C536.04 72.8921 536.167 76.3171 537.561 78.7261C538.83 80.8821 540.986 82.1501 545.171 82.1501C549.103 82.1501 552.4 80.755 554.43 78.979L555.571 80.2481Z"
  ></path>
  <path
    d="M610.234 87.985C599.454 87.985 591.843 83.546 589.053 81.897L587.278 86.082H585.249L582.966 64.013L585.629 63.506C588.293 71.623 594.127 84.94 610.361 84.94C622.537 84.94 628.244 77.711 628.244 68.325C628.244 58.179 618.732 53.866 610.234 50.695L604.4 48.412C593.873 44.48 585.122 39.661 585.122 26.09C585.122 11.885 597.298 4.78198 610.868 4.78198C619.239 4.78198 624.058 6.93798 628.498 8.84098L629.132 6.05098H631.669L633.698 26.471H631.035C628.117 13.534 621.522 7.69998 610.868 7.69998C600.342 7.69998 594.127 13.915 594.127 22.286C594.127 31.925 600.469 35.857 609.854 39.408L614.927 41.437C624.948 45.496 637.757 50.696 637.757 65.028C637.757 80.755 624.566 87.985 610.234 87.985Z"
  ></path>
  <path
    d="M668.07 87.9851C654.754 87.9851 643.466 77.7121 643.466 60.5891C643.466 52.7251 645.875 45.8771 650.315 40.6771C655.134 35.0961 662.364 31.6721 670.481 31.6721C680.374 31.6721 688.111 36.3651 688.111 42.1991C688.111 45.2431 685.828 47.1451 683.038 47.1451C681.896 47.1451 681.009 46.7651 680.247 46.2571L673.906 34.9691C673.145 34.5891 671.496 34.2081 669.594 34.2081C660.081 34.2081 652.726 43.5931 652.726 56.9111C652.726 71.6231 660.081 81.7701 671.75 81.7701C681.263 81.7701 685.447 74.5411 687.097 71.4971L689.126 72.6381C686.715 78.5991 681.262 87.9851 668.07 87.9851Z"
  ></path>
  <path
    d="M717.662 83.5461V86.59C713.984 86.336 708.657 86.2101 704.851 86.2101C699.652 86.2101 695.973 86.337 691.788 86.59V83.5461L700.413 82.5311V41.057L692.296 37.5061V36.3651L707.135 31.419H709.037V82.5321L717.662 83.5461ZM704.599 12.7741C701.301 12.7741 698.638 10.2371 698.638 6.81305C698.638 3.38905 701.301 0.852051 704.599 0.852051C708.023 0.852051 710.56 3.38905 710.56 6.81305C710.56 10.2371 708.023 12.7741 704.599 12.7741Z"
  ></path>
  <path
    d="M765.859 50.5701L730.346 49.8091C729.838 52.4721 729.585 55.0091 729.585 57.6731C729.585 70.4831 736.18 81.7711 748.863 81.7711C758.122 81.7711 762.687 74.5421 764.336 71.4981L766.365 72.6391C764.21 78.3461 758.756 87.9861 745.057 87.9861C731.994 87.9861 720.326 78.0931 720.326 60.7171C720.326 52.8531 722.735 46.2581 726.794 41.1851C731.614 35.2241 738.336 31.6731 746.58 31.6731C760.151 31.6731 766.365 40.4241 766.492 49.8101L765.859 50.5701ZM746.581 34.2081C737.956 34.2081 733.01 40.4231 731.107 47.1451H753.937C756.093 47.1451 756.854 46.5111 756.854 44.3551C756.855 39.4091 753.811 34.2081 746.581 34.2081Z"
  ></path>
  <path
    d="M816.212 86.2091C811.9 86.2091 808.475 86.3361 804.289 86.5891V83.5451L811.899 82.5301V52.0921C811.899 46.3851 811.138 43.2141 809.109 41.0581C807.207 39.0291 804.543 38.0141 800.357 38.0141C794.269 38.0141 789.958 40.1701 787.167 42.1991V82.5311L794.523 83.5461V86.5901C790.591 86.3361 786.533 86.2101 782.601 86.2101C778.289 86.2101 774.103 86.3371 769.917 86.5901V83.5461L778.542 82.5311V41.3111L770.425 37.5061V36.3651L785.264 31.6721H787.166V40.4231C789.195 37.6331 795.791 31.6721 805.177 31.6721C810.25 31.6721 813.928 33.1941 816.338 35.6041C819.382 38.6481 820.523 42.4531 820.523 50.0631V82.5321L828.894 83.5471V86.5911C824.963 86.3361 820.144 86.2091 816.212 86.2091Z"
  ></path>
  <path
    d="M855.531 87.9851C842.214 87.9851 830.926 77.7121 830.926 60.5891C830.926 52.7251 833.335 45.8771 837.775 40.6771C842.594 35.0961 849.824 31.6721 857.941 31.6721C867.834 31.6721 875.571 36.3651 875.571 42.1991C875.571 45.2431 873.288 47.1451 870.498 47.1451C869.356 47.1451 868.469 46.7651 867.708 46.2571L861.366 34.9691C860.604 34.5891 858.956 34.2081 857.054 34.2081C847.541 34.2081 840.186 43.5931 840.186 56.9111C840.186 71.6231 847.541 81.7701 859.21 81.7701C868.722 81.7701 872.907 74.5411 874.557 71.4971L876.586 72.6381C874.175 78.5991 868.721 87.9851 855.531 87.9851Z"
  ></path>
  <path
    d="M926.431 50.5701L890.918 49.8091C890.41 52.4721 890.157 55.0091 890.157 57.6731C890.157 70.4831 896.752 81.7711 909.435 81.7711C918.693 81.7711 923.259 74.5421 924.908 71.4981L926.937 72.6391C924.781 78.3461 919.328 87.9861 905.629 87.9861C892.566 87.9861 880.898 78.0931 880.898 60.7171C880.898 52.8531 883.307 46.2581 887.366 41.1851C892.186 35.2241 898.908 31.6731 907.152 31.6731C920.722 31.6731 926.937 40.4241 927.064 49.8101L926.431 50.5701ZM907.152 34.2081C898.527 34.2081 893.581 40.4231 891.678 47.1451H914.508C916.663 47.1451 917.425 46.5111 917.425 44.3551C917.426 39.4091 914.382 34.2081 907.152 34.2081Z"
  ></path>
  <path
    d="M949.387 87.9851C942.284 87.9851 935.816 85.8291 933.913 85.0681L933.279 70.3561H935.942C938.732 79.6151 942.918 85.4491 950.401 85.4491C957.25 85.4491 961.054 81.0101 961.054 75.5561C961.054 70.4831 957.883 67.6921 950.274 64.0141L947.357 62.6191C939.367 58.8141 933.025 56.0241 933.025 46.5111C933.025 36.2381 941.776 31.6721 951.035 31.6721C957.884 31.6721 962.196 33.5741 964.733 34.3351L965.367 47.3991H962.83C961.309 41.3111 957.884 34.2091 949.514 34.2091C943.299 34.2091 939.874 37.5071 939.874 42.7071C939.874 48.6681 942.918 51.2051 950.147 54.5021L954.459 56.5311C962.829 60.3361 968.664 64.5211 968.664 72.8921C968.665 83.2921 960.421 87.9851 949.387 87.9851Z"
  ></path>
</svg>
